<svg xmlns="http://www.w3.org/2000/svg" version="1.1" xmlns:xlink="http://www.w3.org/1999/xlink" xmlns:svgjs="http://svgjs.dev/svgjs" width="1000" height="1000" viewBox="0 0 1000 1000"><rect width="1000" height="1000" fill="#ffffff"></rect><g transform="matrix(0.7,0,0,0.7,149.4910110432587,409.85471999999993)"><svg viewBox="0 0 218 56" data-background-color="#ffffff" preserveAspectRatio="xMidYMid meet" height="256" width="1000" xmlns="http://www.w3.org/2000/svg" xmlns:xlink="http://www.w3.org/1999/xlink"><g id="tight-bounds" transform="matrix(1,0,0,1,0.15851370367084883,0.17040000000000077)"><svg viewBox="0 0 217.68296666666663 55.65919999999999" height="55.65919999999999" width="217.68296666666663"><g><svg viewBox="0 0 217.68296666666663 55.65919999999999" height="55.65919999999999" width="217.68296666666663"><g><svg viewBox="0 0 217.68296666666663 55.65919999999999" height="55.65919999999999" width="217.68296666666663"><g id="textblocktransform"><svg viewBox="0 0 217.68296666666663 55.65919999999999" height="55.65919999999999" width="217.68296666666663" id="textblock"><g><svg viewBox="0 0 217.68296666666663 55.65919999999999" height="55.65919999999999" width="217.68296666666663"><g><svg><g></g><g></g></svg></g><g><svg><g></g><g><svg></svg></g></svg></g><g id="text-0"><svg viewBox="0 0 217.68296666666663 55.65919999999999" height="55.65919999999999" width="217.68296666666663"><g><svg xmlns="http://www.w3.org/2000/svg" xmlns:xlink="http://www.w3.org/1999/xlink" version="1.1" x="0" y="3.552713678800501e-15" viewBox="5.5 8 29 24" enable-background="new 0 0 40 40" xml:space="preserve" height="55.659199999999984" width="67.25486666666666" class="icon-s-0" data-fill-palette-color="accent" id="s-0"><path fill-rule="evenodd" clip-rule="evenodd" d="M5.5 32l6.8-7 2.3 2.3 6.2-6.3 10.7 11V11h-26V32zM11.9 15c-0.1 0.4-0.2 0.8-0.2 1.2 0 1.9 1.7 3.5 3.8 3.6-0.6 0.8-1.6 1.3-2.7 1.3-1.8 0-3.3-1.4-3.3-3.1C9.5 16.5 10.5 15.4 11.9 15zM8.5 8v2h24v19l2 0V8H8.5z" fill="#37373d" data-fill-palette-color="accent"></path></svg></g><g transform="matrix(1,0,0,1,80.39566666666666,0)"><svg width="137.2873" viewBox="4.25 -34.400001525878906 84.83999633789062 34.400001525878906" height="55.65919999999999" data-palette-color="#37373d"><path d="M11.35-34.4Q15.8-34.4 19.1-33.05 22.4-31.7 24.48-27.95 26.55-24.2 26.55-17.4L26.55-17.4Q26.55-7.7 22.43-3.85 18.3 0 12 0L12 0 4.25 0 4.25-34.4 11.35-34.4ZM12.05-30.75L8.9-30.75 8.9-3.6 12.3-3.6Q16.6-3.6 19.15-6.58 21.7-9.55 21.7-17.4L21.7-17.4Q21.7-22.9 20.38-25.85 19.05-28.8 16.98-29.78 14.9-30.75 12.05-30.75L12.05-30.75ZM33.3-34.4L37.95-34.4 37.95 0 33.3 0 33.3-34.4ZM62.6-34.4L67.2-34.4 57.7 0 52.15 0 42.5-34.4 47.3-34.4 55-4.5 62.6-34.4ZM71.84-34.4L88.94-34.4 88.39-30.8 76.49-30.8 76.49-19.45 86.84-19.45 86.84-15.85 76.49-15.85 76.49-3.65 89.09-3.65 89.09 0 71.84 0 71.84-34.4Z" opacity="1" transform="matrix(1,0,0,1,0,0)" fill="#37373d" class="undefined-text-0" data-fill-palette-color="primary"></path></svg></g></svg></g></svg></g></svg></g></svg></g></svg></g><defs></defs></svg><rect width="217.68296666666663" height="55.65919999999999" fill="none" stroke="none" visibility="hidden"></rect></g></svg></g></svg>