<svg xmlns="http://www.w3.org/2000/svg" xmlns:svgjs="http://svgjs.dev/svgjs" xmlns:xlink="http://www.w3.org/1999/xlink" width="1000" height="256" version="1.1" viewBox="0 0 1000 256"><g transform="matrix(1,0,0,1,-0.7271270810589385,-0.7789714285714382)"><svg xmlns="http://www.w3.org/2000/svg" xmlns:xlink="http://www.w3.org/1999/xlink" width="1000" height="256" data-background-color="#ffffff" preserveAspectRatio="xMidYMid meet" viewBox="0 0 218 56"><g id="tight-bounds" transform="matrix(1,0,0,1,0.15851370367084883,0.17040000000000077)"><svg width="217.683" height="55.659" viewBox="0 0 217.683 55.659"><g><svg width="217.683" height="55.659" viewBox="0 0 217.683 55.659"><g><svg width="217.683" height="55.659" viewBox="0 0 217.683 55.659"><g id="textblocktransform"><svg id="textblock" width="217.683" height="55.659" viewBox="0 0 217.683 55.659"><g><svg width="217.683" height="55.659" viewBox="0 0 217.683 55.659"><g><svg/></g><g><svg><g><svg/></g></svg></g><g id="text-0"><svg width="217.683" height="55.659" viewBox="0 0 217.683 55.659"><g><svg xmlns="http://www.w3.org/2000/svg" xmlns:xlink="http://www.w3.org/1999/xlink" id="s-0" width="67.255" height="55.659" x="0" y="0" class="icon-s-0" data-fill-palette-color="accent" enable-background="new 0 0 40 40" version="1.1" viewBox="5.5 8 29 24" xml:space="preserve"><path fill="#37373d" fill-rule="evenodd" d="M5.5 32l6.8-7 2.3 2.3 6.2-6.3 10.7 11V11h-26V32zM11.9 15c-0.1 0.4-0.2 0.8-0.2 1.2 0 1.9 1.7 3.5 3.8 3.6-0.6 0.8-1.6 1.3-2.7 1.3-1.8 0-3.3-1.4-3.3-3.1C9.5 16.5 10.5 15.4 11.9 15zM8.5 8v2h24v19l2 0V8H8.5z" clip-rule="evenodd" data-fill-palette-color="accent"/></svg></g><g transform="matrix(1,0,0,1,80.39566666666666,0)"><svg width="137.287" height="55.659" data-palette-color="#37373d" viewBox="4.25 -34.4 84.84 34.4"><path fill="#37373d" d="M11.35-34.4Q15.8-34.4 19.1-33.05 22.4-31.7 24.48-27.95 26.55-24.2 26.55-17.4L26.55-17.4Q26.55-7.7 22.43-3.85 18.3 0 12 0L12 0 4.25 0 4.25-34.4 11.35-34.4ZM12.05-30.75L8.9-30.75 8.9-3.6 12.3-3.6Q16.6-3.6 19.15-6.58 21.7-9.55 21.7-17.4L21.7-17.4Q21.7-22.9 20.38-25.85 19.05-28.8 16.98-29.78 14.9-30.75 12.05-30.75L12.05-30.75ZM33.3-34.4L37.95-34.4 37.95 0 33.3 0 33.3-34.4ZM62.6-34.4L67.2-34.4 57.7 0 52.15 0 42.5-34.4 47.3-34.4 55-4.5 62.6-34.4ZM71.84-34.4L88.94-34.4 88.39-30.8 76.49-30.8 76.49-19.45 86.84-19.45 86.84-15.85 76.49-15.85 76.49-3.65 89.09-3.65 89.09 0 71.84 0 71.84-34.4Z" class="undefined-text-0" data-fill-palette-color="primary" opacity="1" transform="matrix(1,0,0,1,0,0)"/></svg></g></svg></g></svg></g></svg></g></svg></g></svg></g></svg><rect width="217.683" height="55.659" fill="none" stroke="none" visibility="hidden"/></g></svg></g></svg>