<svg xmlns="http://www.w3.org/2000/svg" viewBox="0 0 2027.2 664.9">
  <defs>
    <style>
      .cls-1 {
        fill: #fff;
      }
    </style>
  </defs>
  <g id="layer2" data-name="Слой 2">
    <g id="layer2-2" data-name="Слой 2">
      <path class="cls-1" d="M7.29,37.71C61.73,18.4,125.53-3.46,180.42,26.61c53.15,29.12,50.35,90.12,52.71,142.73,1.22,27.11,5,53.39,15.72,78.51,11,25.81,27.24,49,45.71,70,36.3,41.27,81.35,74.49,130,99.87,109,56.93,232.85,73.68,354.3,78.21,66.9,2.5,134,2.25,200.88.69,65.65-1.53,131.77-3.45,197.15-9.76,44.07-4.25,93.94-13.22,126.06-46.51,31.6-32.74,33.43-79.79,12.76-118.87-23-43.58-66.31-68.91-114.67-73.54-56.15-5.37-114.87,14.42-163.29,41.7-41.94,23.63-85,60.27-97.36,108.85-13.46,53,20.26,97.87,57.21,132,77.43,71.5,182,103.5,284.12,119.24a1297.33,1297.33,0,0,0,173.13,15c63.21,1.18,126.6-4.68,187-24.25,107.43-34.81,199.63-102.53,302-148.45A591.51,591.51,0,0,1,2023,462.84c7.41-2.12,4.26-13.71-3.19-11.57C1915.22,481.2,1825.21,544,1728.54,591.58c-50.43,24.85-103,44.93-158.74,54.06-61.45,10.08-124.27,8.25-186.12,3.5-102.52-7.87-208.81-23.69-300.56-72.86-44.38-23.8-89.68-56.93-117.14-99.94-14.05-22-20.56-47.54-14.41-73.29,5.64-23.63,19.91-44.22,36.74-61.34,37.76-38.41,90.48-63.56,142.44-76s111.39-9,151.28,30.53c31.75,31.46,48.73,82.09,22.93,122.35-25.11,39.19-76.52,50.5-119.66,55.4-60.78,6.9-122.67,8.3-183.78,10.07-64.5,1.87-129.09,2.3-193.61.76-119.65-2.85-242.27-14.74-352.32-65.2-49-22.46-94.89-52.09-133.37-90-40.26-39.65-71.4-87-76.12-144.5-3.85-46.87,3.24-100.24-26.55-140.39C190.14,5.11,136.92-4.68,90.67,1.87,60.86,6.09,32.36,16.11,4.1,26.14-3.12,28.7,0,40.3,7.29,37.71Z"/>
    </g>
  </g>
</svg>
